<?xml version="1.0"?>
<svg xmlns="http://www.w3.org/2000/svg" width="349" height="78" viewBox="0 0 349 78" fill="none">
<path d="M71.9513 53.2718C69.8649 52.1543 68.1693 50.4422 67.0864 48.3593C65.9066 46.0441 65.3196 43.4796 65.3764 40.8894C65.3082 38.3103 65.896 35.7553 67.0864 33.4574C68.1938 31.4015 69.8921 29.7132 71.9684 28.6039C74.2689 27.4762 76.8033 26.8893 79.3727 26.8893C81.9421 26.8893 84.4765 27.4762 86.777 28.6039C88.8447 29.714 90.5262 31.4108 91.6034 33.4743C92.7698 35.7796 93.3466 38.331 93.2835 40.9063C93.3443 43.4935 92.7678 46.0566 91.6034 48.3762C90.5351 50.4566 88.8524 52.1693 86.777 53.2887C84.4726 54.4138 81.9358 54.9992 79.3642 54.9992C76.7925 54.9992 74.2557 54.4138 71.9513 53.2887V53.2718ZM84.2804 47.2808C85.466 45.8202 86.0574 43.6898 86.0545 40.8894C86.0517 38.0891 85.4603 35.9825 84.2804 34.5697C83.0919 33.1204 81.4575 32.3957 79.377 32.3957C77.2965 32.3957 75.6677 33.1148 74.4907 34.5529C73.3193 35.9881 72.7337 38.1059 72.7337 40.9063C72.7337 43.7066 73.3193 45.8441 74.4907 47.3187C75.662 48.768 77.2908 49.4927 79.377 49.4927C80.3134 49.5315 81.2459 49.3514 82.0982 48.9669C82.9504 48.5825 83.6982 48.0047 84.2804 47.2808Z" fill="#073C66"/>
<path d="M117.159 35.0753V54.6369H110.242V52.0205C108.968 53.9698 107.08 54.9444 104.578 54.9444C102.076 54.9444 100.193 54.2521 98.9305 52.8674C97.6936 51.477 97.0752 49.3592 97.0752 46.5139V35.0753H104.146V46.7204C104.146 48.6444 104.994 49.6078 106.69 49.6106C107.144 49.626 107.595 49.5404 108.011 49.3602C108.427 49.1801 108.797 48.91 109.092 48.57C109.734 47.7889 110.062 46.8018 110.011 45.7977V35.0753H117.159Z" fill="#073C66"/>
<path d="M134.977 49.0924V54.3673C133.801 54.7881 132.555 54.984 131.304 54.9445C128.62 54.9445 126.581 54.2001 125.187 52.7115C123.793 51.2229 123.096 49.157 123.096 46.514V40.1943H119.386V35.0753H123.096V30.6473L130.172 28.4143V35.0753H134.938V40.1985H130.167V46.5182C130.139 46.9101 130.202 47.3033 130.35 47.6681C130.498 48.0329 130.728 48.36 131.022 48.6247C131.606 49.1084 132.351 49.3621 133.113 49.3368C133.74 49.3139 134.365 49.2321 134.977 49.0924Z" fill="#073C66"/>
<path d="M162.23 54.6369H154.437L150.842 45.5112C150.414 44.4832 149.448 43.9692 147.909 43.9692H145.254V54.6369H138.025V27.2178H150.957C154.317 27.2178 156.845 27.9298 158.541 29.3538C160.237 30.7779 161.083 32.8128 161.08 35.4587C161.138 37.187 160.602 38.884 159.559 40.2748C158.516 41.6656 157.028 42.6689 155.335 43.1224C156.126 43.2829 156.857 43.6562 157.447 44.201C158.114 44.8336 158.622 45.6112 158.93 46.4718L162.23 54.6369ZM153.184 37.8728C153.539 37.6241 153.822 37.2894 154.007 36.9012C154.192 36.513 154.273 36.0844 154.24 35.6567C154.24 34.6034 153.896 33.8465 153.206 33.3858C152.513 32.9224 151.376 32.6906 149.786 32.6906H145.177V38.589H149.786C151.351 38.5806 152.483 38.3405 153.184 37.8728Z" fill="#073C66"/>
<path d="M183.862 45.5491H171.396C171.524 47.0617 171.969 48.1529 172.721 48.8227C173.473 49.4926 174.585 49.8255 176.047 49.8255C177.056 49.8205 178.057 49.657 179.014 49.341C179.975 49.0342 180.885 48.5869 181.711 48.0138L183.507 52.6483C182.418 53.4132 181.201 53.9836 179.912 54.3335C178.542 54.7375 177.121 54.9446 175.692 54.9487C173.655 54.9984 171.635 54.577 169.793 53.7184C168.177 52.9542 166.836 51.7244 165.945 50.192C165.026 48.5356 164.568 46.6695 164.616 44.7823C164.585 42.9402 165.026 41.1202 165.898 39.4906C166.703 37.9788 167.92 36.7182 169.412 35.8505C170.97 34.9632 172.743 34.5103 174.542 34.5402C176.272 34.4985 177.981 34.9224 179.484 35.7662C180.899 36.5962 182.029 37.8243 182.729 39.2926C183.512 40.9585 183.899 42.7783 183.862 44.6138V45.5491ZM171.464 42.3134H177.795C177.533 40.3136 176.517 39.3123 174.747 39.3095C172.978 39.3067 171.886 40.308 171.473 42.3134H171.464Z" fill="#073C66"/>
<path d="M208.046 35.0753V54.6369H201.091V51.9826C200.49 52.9319 199.621 53.6875 198.59 54.1566C197.471 54.6886 196.242 54.9582 194.999 54.9445C193.391 54.983 191.808 54.5519 190.449 53.7054C189.09 52.859 188.015 51.6351 187.36 50.1878C186.587 48.5296 186.206 46.7204 186.244 44.8961C186.206 43.0375 186.594 41.1945 187.377 39.5033C188.058 38.0248 189.139 36.7596 190.502 35.8463C191.833 34.9732 193.4 34.5165 194.999 34.536C196.242 34.527 197.469 34.8162 198.573 35.3786C199.597 35.8813 200.467 36.645 201.091 37.5905V35.0879L208.046 35.0753ZM200.078 48.4731C200.753 47.6305 201.091 46.4114 201.091 44.8161C201.091 43.2207 200.753 41.982 200.078 41.1001C199.717 40.6915 199.271 40.3647 198.77 40.142C198.269 39.9194 197.725 39.8062 197.176 39.8102C196.626 39.8142 196.084 39.9353 195.587 40.1652C195.089 40.3952 194.648 40.7284 194.294 41.1422C193.59 42.027 193.238 43.2783 193.238 44.8961C193.238 46.4634 193.575 47.6599 194.255 48.4941C194.608 48.9176 195.058 49.2528 195.568 49.4724C196.077 49.6921 196.632 49.7899 197.188 49.7581C197.738 49.7855 198.288 49.6832 198.79 49.4597C199.293 49.2363 199.734 48.8981 200.078 48.4731Z" fill="#073C66"/>
<path d="M214.218 52.2481C212.32 50.4533 211.369 48.0026 211.367 44.8961C211.326 42.9963 211.805 41.1207 212.752 39.4654C213.667 37.909 215.017 36.6453 216.642 35.8252C218.434 34.937 220.42 34.4944 222.426 34.536C223.882 34.5351 225.331 34.7496 226.722 35.1722C227.954 35.5039 229.1 36.0882 230.087 36.8869L228.287 41.6984C227.55 41.1144 226.717 40.6585 225.825 40.3502C224.962 40.0303 224.049 39.8606 223.127 39.8488C221.668 39.8488 220.548 40.2603 219.767 41.0832C218.989 41.9048 218.596 43.1224 218.596 44.7402C218.596 46.3581 218.989 47.622 219.767 48.4562C220.545 49.2904 221.682 49.7202 223.187 49.7202C224.102 49.709 225.008 49.5393 225.863 49.2188C226.748 48.9075 227.573 48.4518 228.304 47.8706L230.087 52.6188C229.088 53.4348 227.921 54.0258 226.667 54.3504C225.187 54.7678 223.653 54.975 222.114 54.9655C218.754 54.9515 216.122 54.0457 214.218 52.2481Z" fill="#073C66"/>
<path d="M250.932 36.6341C252.092 38.0385 252.672 40.1451 252.672 42.9538V54.62H245.593V43.2445C245.593 42.0396 245.385 41.1731 244.969 40.645C244.729 40.3707 244.428 40.1559 244.088 40.0182C243.749 39.8806 243.381 39.824 243.015 39.853C242.535 39.8358 242.057 39.9219 241.614 40.1052C241.171 40.2886 240.774 40.5648 240.45 40.9147C239.773 41.6862 239.422 42.6847 239.471 43.7038V54.6032H232.392V26.2951H239.462V37.4515C240.183 36.5061 241.124 35.7462 242.206 35.2364C243.288 34.7266 244.479 34.482 245.678 34.5233C248.021 34.5318 249.772 35.2354 250.932 36.6341Z" fill="#073C66"/>
<path d="M257.161 54.6369V27.2178H276.582V32.8802H264.403V37.8728H275.813V43.4974H264.403V54.6243L257.161 54.6369Z" fill="#073C66"/>
<path d="M293.972 35.0374V41.3908C292.961 40.9021 291.853 40.6389 290.727 40.6198C287.76 40.6198 286.275 42.0242 286.273 44.8329V54.6538H279.202V40.6998C279.213 38.8205 279.109 36.9422 278.89 35.0753H285.533L285.96 38.3489C286.381 37.202 287.179 36.2263 288.226 35.5766C289.281 34.9293 290.502 34.5944 291.745 34.6118C292.511 34.5724 293.276 34.7185 293.972 35.0374Z" fill="#073C66"/>
<path d="M299.834 53.7142C298.237 52.9358 296.916 51.701 296.042 50.171C295.169 48.4902 294.713 46.6288 294.713 44.7402C294.713 42.8517 295.169 40.9903 296.042 39.3095C296.917 37.7803 298.238 36.5458 299.834 35.7662C301.635 34.9125 303.616 34.491 305.614 34.536C307.599 34.4941 309.565 34.9279 311.342 35.8C312.925 36.5884 314.236 37.8214 315.109 39.3432C315.982 41.0164 316.438 42.8711 316.438 44.7529C316.438 46.6347 315.982 48.4893 315.109 50.1626C314.236 51.6844 312.925 52.9173 311.342 53.7058C309.565 54.5779 307.599 55.0116 305.614 54.9697C303.614 55.0089 301.632 54.5785 299.834 53.7142ZM309.444 44.7402C309.444 43.055 309.127 41.8037 308.491 40.9863C307.855 40.169 306.896 39.7645 305.614 39.7729C304.314 39.7729 303.338 40.1774 302.686 40.9863C302.033 41.7953 301.707 43.0466 301.707 44.7402C301.707 46.4634 302.032 47.7231 302.686 48.5321C303.34 49.341 304.314 49.7413 305.614 49.7413C308.168 49.7441 309.444 48.0771 309.444 44.7402Z" fill="#073C66"/>
<path d="M340.899 35.0753V53.4067C340.899 56.6143 339.922 59.0593 337.97 60.7418C336.018 62.4242 333.152 63.2668 329.373 63.2696C326.141 63.2696 323.34 62.7079 320.969 61.5844L322.024 56.5033C323.191 57.0129 324.401 57.419 325.641 57.7167C326.785 58.0001 327.959 58.1486 329.138 58.1591C330.754 58.1591 331.942 57.8178 332.716 57.1395C333.49 56.4612 333.866 55.3995 333.866 53.9586V51.0726C333.155 51.9704 332.255 52.7062 331.229 53.2297C330.145 53.8136 328.928 54.118 327.693 54.1145C326.09 54.1387 324.512 53.7182 323.14 52.9011C321.775 52.074 320.677 50.8798 319.977 49.459C319.23 47.8512 318.844 46.1039 318.844 44.3358C318.844 42.5677 319.23 40.8203 319.977 39.2126C320.671 37.7892 321.765 36.592 323.129 35.7631C324.493 34.9342 326.07 34.5083 327.672 34.536C328.931 34.5208 330.175 34.7979 331.305 35.3449C332.341 35.8318 333.22 36.5915 333.845 37.54V35.0753H340.899ZM332.802 47.6852C333.503 46.8763 333.858 45.7556 333.858 44.3147C333.922 43.128 333.547 41.9587 332.802 41.0242C332.437 40.6171 331.984 40.2964 331.477 40.0863C330.969 39.8761 330.419 39.782 329.869 39.8109C329.319 39.7843 328.769 39.8774 328.26 40.0834C327.75 40.2895 327.292 40.6035 326.919 41.0032C326.207 41.8037 325.849 42.9075 325.846 44.3147C325.775 45.533 326.165 46.7341 326.941 47.6852C327.305 48.0923 327.757 48.4139 328.264 48.6268C328.77 48.8396 329.319 48.9383 329.869 48.9155C330.42 48.9423 330.971 48.8455 331.479 48.6324C331.987 48.4193 332.439 48.0955 332.802 47.6852Z" fill="#073C66"/>
<path d="M24.7459 63.3413C38.0761 63.3413 48.8824 52.6913 48.8824 39.5539C48.8824 26.4164 38.0761 15.7664 24.7459 15.7664C11.4157 15.7664 0.609375 26.4164 0.609375 39.5539C0.609375 52.6913 11.4157 63.3413 24.7459 63.3413Z" fill="#1CCC25"/>
</svg>
